<mxfile host="app.diagrams.net" modified="2020-10-26T08:24:42.851Z" agent="5.0 (Windows NT 10.0; Win64; x64) AppleWebKit/537.36 (KHTML, like Gecko) Chrome/86.0.4240.111 Safari/537.36" etag="9j6dv8KIhnxVcrx4ybGi" version="13.8.0" type="github">
  <diagram id="c6erBWY19_j7oDsIYQfM" name="Page-1">
    <mxGraphModel dx="1730" dy="975" grid="1" gridSize="10" guides="1" tooltips="1" connect="1" arrows="1" fold="1" page="1" pageScale="1" pageWidth="1169" pageHeight="827" math="0" shadow="0">
      <root>
        <mxCell id="0" />
        <mxCell id="1" parent="0" />
        <mxCell id="PijAwY5Fn_rKkuU7mWet-1" value="&lt;font style=&quot;font-size: 18px&quot;&gt;订购商&lt;/font&gt;" style="shape=umlActor;verticalLabelPosition=bottom;verticalAlign=top;html=1;outlineConnect=0;" vertex="1" parent="1">
          <mxGeometry x="120" y="80" width="60" height="100" as="geometry" />
        </mxCell>
        <mxCell id="PijAwY5Fn_rKkuU7mWet-4" value="&lt;font style=&quot;font-size: 18px&quot;&gt;商店&lt;/font&gt;" style="shape=umlActor;verticalLabelPosition=bottom;verticalAlign=top;html=1;outlineConnect=0;" vertex="1" parent="1">
          <mxGeometry x="120" y="370" width="60" height="100" as="geometry" />
        </mxCell>
        <mxCell id="PijAwY5Fn_rKkuU7mWet-5" value="&lt;font style=&quot;font-size: 18px&quot;&gt;客户&lt;/font&gt;" style="shape=umlActor;verticalLabelPosition=bottom;verticalAlign=top;html=1;outlineConnect=0;" vertex="1" parent="1">
          <mxGeometry x="940" y="130" width="60" height="120" as="geometry" />
        </mxCell>
        <mxCell id="PijAwY5Fn_rKkuU7mWet-6" value="&lt;font style=&quot;font-size: 18px&quot;&gt;会员&lt;/font&gt;" style="shape=umlActor;verticalLabelPosition=bottom;verticalAlign=top;html=1;outlineConnect=0;" vertex="1" parent="1">
          <mxGeometry x="945" y="470" width="60" height="120" as="geometry" />
        </mxCell>
        <mxCell id="PijAwY5Fn_rKkuU7mWet-21" value="" style="html=1;shadow=0;dashed=0;align=center;verticalAlign=middle;shape=mxgraph.arrows2.arrow;dy=0.6;dx=40;direction=north;notch=0;" vertex="1" parent="1">
          <mxGeometry x="950" y="280" width="50" height="160" as="geometry" />
        </mxCell>
        <mxCell id="PijAwY5Fn_rKkuU7mWet-22" value="&lt;font style=&quot;font-size: 18px;&quot;&gt;订购光盘&lt;/font&gt;" style="ellipse;whiteSpace=wrap;html=1;fontSize=18;" vertex="1" parent="1">
          <mxGeometry x="410" y="90" width="120" height="80" as="geometry" />
        </mxCell>
        <mxCell id="PijAwY5Fn_rKkuU7mWet-36" style="edgeStyle=orthogonalEdgeStyle;rounded=0;orthogonalLoop=1;jettySize=auto;html=1;entryX=1;entryY=0.5;entryDx=0;entryDy=0;fontSize=18;dashed=1;" edge="1" parent="1" source="PijAwY5Fn_rKkuU7mWet-23" target="PijAwY5Fn_rKkuU7mWet-22">
          <mxGeometry relative="1" as="geometry" />
        </mxCell>
        <mxCell id="PijAwY5Fn_rKkuU7mWet-23" value="根据请求" style="ellipse;whiteSpace=wrap;html=1;fontSize=18;" vertex="1" parent="1">
          <mxGeometry x="660" y="90" width="120" height="80" as="geometry" />
        </mxCell>
        <mxCell id="PijAwY5Fn_rKkuU7mWet-66" style="edgeStyle=orthogonalEdgeStyle;rounded=0;orthogonalLoop=1;jettySize=auto;html=1;fontSize=18;dashed=1;" edge="1" parent="1" source="PijAwY5Fn_rKkuU7mWet-24" target="PijAwY5Fn_rKkuU7mWet-61">
          <mxGeometry relative="1" as="geometry" />
        </mxCell>
        <mxCell id="PijAwY5Fn_rKkuU7mWet-24" value="销售光盘" style="ellipse;whiteSpace=wrap;html=1;fontSize=18;" vertex="1" parent="1">
          <mxGeometry x="465" y="240" width="120" height="80" as="geometry" />
        </mxCell>
        <mxCell id="PijAwY5Fn_rKkuU7mWet-67" style="edgeStyle=orthogonalEdgeStyle;rounded=0;orthogonalLoop=1;jettySize=auto;html=1;fontSize=18;dashed=1;" edge="1" parent="1" source="PijAwY5Fn_rKkuU7mWet-25" target="PijAwY5Fn_rKkuU7mWet-61">
          <mxGeometry relative="1" as="geometry" />
        </mxCell>
        <mxCell id="PijAwY5Fn_rKkuU7mWet-25" value="租赁光盘" style="ellipse;whiteSpace=wrap;html=1;fontSize=18;" vertex="1" parent="1">
          <mxGeometry x="470" y="340" width="120" height="80" as="geometry" />
        </mxCell>
        <mxCell id="PijAwY5Fn_rKkuU7mWet-26" value="网络预定光盘" style="ellipse;whiteSpace=wrap;html=1;fontSize=18;" vertex="1" parent="1">
          <mxGeometry x="465" y="540" width="120" height="80" as="geometry" />
        </mxCell>
        <mxCell id="PijAwY5Fn_rKkuU7mWet-27" value="搜索光盘" style="ellipse;whiteSpace=wrap;html=1;fontSize=18;" vertex="1" parent="1">
          <mxGeometry x="465" y="640" width="120" height="80" as="geometry" />
        </mxCell>
        <mxCell id="PijAwY5Fn_rKkuU7mWet-57" style="edgeStyle=orthogonalEdgeStyle;rounded=0;orthogonalLoop=1;jettySize=auto;html=1;fontSize=18;dashed=1;" edge="1" parent="1" source="PijAwY5Fn_rKkuU7mWet-28" target="PijAwY5Fn_rKkuU7mWet-27">
          <mxGeometry relative="1" as="geometry" />
        </mxCell>
        <mxCell id="PijAwY5Fn_rKkuU7mWet-28" value="提出预定" style="ellipse;whiteSpace=wrap;html=1;fontSize=18;" vertex="1" parent="1">
          <mxGeometry x="750" y="630" width="120" height="80" as="geometry" />
        </mxCell>
        <mxCell id="PijAwY5Fn_rKkuU7mWet-30" value="Condition：&lt;br style=&quot;font-size: 18px;&quot;&gt;{没有对应的光盘}" style="shape=note;size=20;whiteSpace=wrap;html=1;fontSize=18;" vertex="1" parent="1">
          <mxGeometry x="585" y="730" width="140" height="70" as="geometry" />
        </mxCell>
        <mxCell id="PijAwY5Fn_rKkuU7mWet-38" value="&lt;font style=&quot;font-size: 18px&quot;&gt;&amp;lt;&amp;lt;extend&amp;gt;&amp;gt;&lt;/font&gt;" style="text;html=1;strokeColor=none;fillColor=none;align=center;verticalAlign=middle;whiteSpace=wrap;rounded=0;fontSize=18;" vertex="1" parent="1">
          <mxGeometry x="580" y="100" width="40" height="20" as="geometry" />
        </mxCell>
        <mxCell id="PijAwY5Fn_rKkuU7mWet-42" value="" style="endArrow=none;html=1;fontSize=18;entryX=0;entryY=1;entryDx=0;entryDy=0;entryPerimeter=0;" edge="1" parent="1" source="PijAwY5Fn_rKkuU7mWet-25" target="PijAwY5Fn_rKkuU7mWet-5">
          <mxGeometry width="50" height="50" relative="1" as="geometry">
            <mxPoint x="680" y="380" as="sourcePoint" />
            <mxPoint x="730" y="330" as="targetPoint" />
          </mxGeometry>
        </mxCell>
        <mxCell id="PijAwY5Fn_rKkuU7mWet-43" value="" style="endArrow=none;html=1;fontSize=18;exitX=1;exitY=0.5;exitDx=0;exitDy=0;entryX=0.5;entryY=0.5;entryDx=0;entryDy=0;entryPerimeter=0;" edge="1" parent="1" source="PijAwY5Fn_rKkuU7mWet-24" target="PijAwY5Fn_rKkuU7mWet-5">
          <mxGeometry width="50" height="50" relative="1" as="geometry">
            <mxPoint x="620" y="300" as="sourcePoint" />
            <mxPoint x="670" y="250" as="targetPoint" />
          </mxGeometry>
        </mxCell>
        <mxCell id="PijAwY5Fn_rKkuU7mWet-44" value="" style="endArrow=none;html=1;fontSize=18;exitX=1;exitY=0.5;exitDx=0;exitDy=0;entryX=0;entryY=0.3333333333333333;entryDx=0;entryDy=0;entryPerimeter=0;" edge="1" parent="1" source="PijAwY5Fn_rKkuU7mWet-23" target="PijAwY5Fn_rKkuU7mWet-5">
          <mxGeometry width="50" height="50" relative="1" as="geometry">
            <mxPoint x="850" y="150" as="sourcePoint" />
            <mxPoint x="900" y="100" as="targetPoint" />
          </mxGeometry>
        </mxCell>
        <mxCell id="PijAwY5Fn_rKkuU7mWet-45" value="" style="endArrow=none;html=1;fontSize=18;entryX=0;entryY=0.5;entryDx=0;entryDy=0;" edge="1" parent="1" source="PijAwY5Fn_rKkuU7mWet-4" target="PijAwY5Fn_rKkuU7mWet-25">
          <mxGeometry width="50" height="50" relative="1" as="geometry">
            <mxPoint x="310" y="450" as="sourcePoint" />
            <mxPoint x="360" y="400" as="targetPoint" />
          </mxGeometry>
        </mxCell>
        <mxCell id="PijAwY5Fn_rKkuU7mWet-46" value="" style="endArrow=none;html=1;fontSize=18;exitX=0.75;exitY=0.1;exitDx=0;exitDy=0;exitPerimeter=0;entryX=0;entryY=0.5;entryDx=0;entryDy=0;" edge="1" parent="1" source="PijAwY5Fn_rKkuU7mWet-4" target="PijAwY5Fn_rKkuU7mWet-24">
          <mxGeometry width="50" height="50" relative="1" as="geometry">
            <mxPoint x="360" y="360" as="sourcePoint" />
            <mxPoint x="410" y="310" as="targetPoint" />
          </mxGeometry>
        </mxCell>
        <mxCell id="PijAwY5Fn_rKkuU7mWet-47" value="" style="endArrow=none;html=1;fontSize=18;exitX=0.5;exitY=0;exitDx=0;exitDy=0;exitPerimeter=0;entryX=0;entryY=1;entryDx=0;entryDy=0;" edge="1" parent="1" source="PijAwY5Fn_rKkuU7mWet-4" target="PijAwY5Fn_rKkuU7mWet-22">
          <mxGeometry width="50" height="50" relative="1" as="geometry">
            <mxPoint x="200" y="280" as="sourcePoint" />
            <mxPoint x="250" y="230" as="targetPoint" />
          </mxGeometry>
        </mxCell>
        <mxCell id="PijAwY5Fn_rKkuU7mWet-48" value="" style="endArrow=none;html=1;fontSize=18;entryX=0;entryY=0.5;entryDx=0;entryDy=0;" edge="1" parent="1" source="PijAwY5Fn_rKkuU7mWet-1" target="PijAwY5Fn_rKkuU7mWet-22">
          <mxGeometry width="50" height="50" relative="1" as="geometry">
            <mxPoint x="270" y="140" as="sourcePoint" />
            <mxPoint x="320" y="90" as="targetPoint" />
          </mxGeometry>
        </mxCell>
        <mxCell id="PijAwY5Fn_rKkuU7mWet-49" value="" style="endArrow=none;html=1;fontSize=18;entryX=0;entryY=0.5;entryDx=0;entryDy=0;" edge="1" parent="1" source="PijAwY5Fn_rKkuU7mWet-4" target="PijAwY5Fn_rKkuU7mWet-26">
          <mxGeometry width="50" height="50" relative="1" as="geometry">
            <mxPoint x="340" y="560" as="sourcePoint" />
            <mxPoint x="390" y="510" as="targetPoint" />
          </mxGeometry>
        </mxCell>
        <mxCell id="PijAwY5Fn_rKkuU7mWet-51" value="" style="endArrow=none;html=1;fontSize=18;entryX=0;entryY=0.5;entryDx=0;entryDy=0;" edge="1" parent="1" source="PijAwY5Fn_rKkuU7mWet-4" target="PijAwY5Fn_rKkuU7mWet-27">
          <mxGeometry width="50" height="50" relative="1" as="geometry">
            <mxPoint x="320" y="670" as="sourcePoint" />
            <mxPoint x="370" y="620" as="targetPoint" />
          </mxGeometry>
        </mxCell>
        <mxCell id="PijAwY5Fn_rKkuU7mWet-52" value="" style="endArrow=none;html=1;fontSize=18;exitX=1;exitY=0.5;exitDx=0;exitDy=0;" edge="1" parent="1" source="PijAwY5Fn_rKkuU7mWet-27" target="PijAwY5Fn_rKkuU7mWet-6">
          <mxGeometry width="50" height="50" relative="1" as="geometry">
            <mxPoint x="710" y="650" as="sourcePoint" />
            <mxPoint x="760" y="600" as="targetPoint" />
          </mxGeometry>
        </mxCell>
        <mxCell id="PijAwY5Fn_rKkuU7mWet-53" value="" style="endArrow=none;html=1;fontSize=18;exitX=0.992;exitY=0.629;exitDx=0;exitDy=0;exitPerimeter=0;" edge="1" parent="1" source="PijAwY5Fn_rKkuU7mWet-26" target="PijAwY5Fn_rKkuU7mWet-6">
          <mxGeometry width="50" height="50" relative="1" as="geometry">
            <mxPoint x="780" y="530" as="sourcePoint" />
            <mxPoint x="830" y="480" as="targetPoint" />
          </mxGeometry>
        </mxCell>
        <mxCell id="PijAwY5Fn_rKkuU7mWet-55" value="" style="endArrow=none;html=1;fontSize=18;exitX=1;exitY=0.5;exitDx=0;exitDy=0;" edge="1" parent="1" source="PijAwY5Fn_rKkuU7mWet-28">
          <mxGeometry width="50" height="50" relative="1" as="geometry">
            <mxPoint x="930" y="690" as="sourcePoint" />
            <mxPoint x="940" y="560" as="targetPoint" />
          </mxGeometry>
        </mxCell>
        <mxCell id="PijAwY5Fn_rKkuU7mWet-58" value="" style="endArrow=none;dashed=1;html=1;dashPattern=1 3;strokeWidth=2;fontSize=18;" edge="1" parent="1">
          <mxGeometry width="50" height="50" relative="1" as="geometry">
            <mxPoint x="660" y="730" as="sourcePoint" />
            <mxPoint x="690" y="670" as="targetPoint" />
          </mxGeometry>
        </mxCell>
        <mxCell id="PijAwY5Fn_rKkuU7mWet-59" value="&amp;lt;&amp;lt;extend&amp;gt;&amp;gt;" style="text;html=1;strokeColor=none;fillColor=none;align=center;verticalAlign=middle;whiteSpace=wrap;rounded=0;fontSize=18;" vertex="1" parent="1">
          <mxGeometry x="685" y="650" width="40" height="20" as="geometry" />
        </mxCell>
        <mxCell id="PijAwY5Fn_rKkuU7mWet-61" value="条码扫描" style="ellipse;whiteSpace=wrap;html=1;fontSize=18;" vertex="1" parent="1">
          <mxGeometry x="720" y="340" width="120" height="80" as="geometry" />
        </mxCell>
        <mxCell id="PijAwY5Fn_rKkuU7mWet-68" style="edgeStyle=orthogonalEdgeStyle;rounded=0;orthogonalLoop=1;jettySize=auto;html=1;fontSize=18;dashed=1;" edge="1" parent="1" source="PijAwY5Fn_rKkuU7mWet-62" target="PijAwY5Fn_rKkuU7mWet-61">
          <mxGeometry relative="1" as="geometry" />
        </mxCell>
        <mxCell id="PijAwY5Fn_rKkuU7mWet-62" value="会员管理" style="ellipse;whiteSpace=wrap;html=1;fontSize=18;" vertex="1" parent="1">
          <mxGeometry x="470" y="440" width="120" height="80" as="geometry" />
        </mxCell>
        <mxCell id="PijAwY5Fn_rKkuU7mWet-64" value="" style="endArrow=none;html=1;fontSize=18;exitX=1;exitY=0.5;exitDx=0;exitDy=0;" edge="1" parent="1" source="PijAwY5Fn_rKkuU7mWet-62" target="PijAwY5Fn_rKkuU7mWet-6">
          <mxGeometry width="50" height="50" relative="1" as="geometry">
            <mxPoint x="730" y="520" as="sourcePoint" />
            <mxPoint x="780" y="470" as="targetPoint" />
          </mxGeometry>
        </mxCell>
        <mxCell id="PijAwY5Fn_rKkuU7mWet-65" value="" style="endArrow=none;html=1;fontSize=18;entryX=0;entryY=0.5;entryDx=0;entryDy=0;" edge="1" parent="1" target="PijAwY5Fn_rKkuU7mWet-62">
          <mxGeometry width="50" height="50" relative="1" as="geometry">
            <mxPoint x="180" y="430" as="sourcePoint" />
            <mxPoint x="420" y="450" as="targetPoint" />
          </mxGeometry>
        </mxCell>
        <mxCell id="PijAwY5Fn_rKkuU7mWet-70" value="&amp;lt;&amp;lt;include&amp;gt;&amp;gt;" style="text;html=1;strokeColor=none;fillColor=none;align=center;verticalAlign=middle;whiteSpace=wrap;rounded=0;fontSize=18;" vertex="1" parent="1">
          <mxGeometry x="660" y="290" width="40" height="20" as="geometry" />
        </mxCell>
        <mxCell id="PijAwY5Fn_rKkuU7mWet-71" value="&amp;lt;&amp;lt;include&amp;gt;&amp;gt;" style="text;html=1;strokeColor=none;fillColor=none;align=center;verticalAlign=middle;whiteSpace=wrap;rounded=0;fontSize=18;" vertex="1" parent="1">
          <mxGeometry x="630" y="380" width="40" height="20" as="geometry" />
        </mxCell>
        <mxCell id="PijAwY5Fn_rKkuU7mWet-72" value="&amp;lt;&amp;lt;include&amp;gt;&amp;gt;" style="text;html=1;strokeColor=none;fillColor=none;align=center;verticalAlign=middle;whiteSpace=wrap;rounded=0;fontSize=18;" vertex="1" parent="1">
          <mxGeometry x="680" y="460" width="40" height="20" as="geometry" />
        </mxCell>
      </root>
    </mxGraphModel>
  </diagram>
</mxfile>
